<svg xmlns="http://www.w3.org/2000/svg" width="160" height="28" viewBox="0 0 160 28">
    <path fill="#000" fill-rule="evenodd" d="M153.792 17.648L160 25.054l-3.445 2.717-7.539-9.206v8.595h-4.57V1.815l4.57-.815v16.478l6.89-9.31 3.412 2.379-5.526 7.1zM0 1.747V27.16h2.865V1.101L0 1.747zm4.127 16.138l7.948 9.75 2.252-1.766-6.823-8.12 5.902-7.338-2.252-1.665-7.027 9.14zm22.41.917H23.33c-3.24 0-4.707 1.088-4.707 3.398 0 1.868 1.023 2.922 2.865 2.922 1.672 0 3.855-.884 5.049-2.039v-4.28zm0-2.004v-1.46c0-2.82-1.263-3.942-3.65-3.942-1.672 0-3.548.51-5.014 1.19l-.853-2.006c1.807-1.019 3.99-1.63 5.935-1.63 4.264 0 6.345 2.038 6.345 6.523V27.16h-2.115l-.341-1.97c-1.774 1.426-4.06 2.242-5.868 2.242-3.172 0-5.082-1.903-5.082-5.097 0-3.635 2.456-5.537 7.061-5.537h3.582zm19.032-8.052l2.251 1.665-5.9 7.338 6.822 8.12-2.252 1.767-7.948-9.75 7.027-9.14zM37.28 27.16h-2.865V1.747l2.865-.645V27.16zm23.671-8.358h-3.206c-3.24 0-4.708 1.088-4.708 3.398 0 1.868 1.024 2.922 2.866 2.922 1.671 0 3.854-.884 5.048-2.039v-4.28zm0-2.004v-1.46c0-2.82-1.262-3.942-3.65-3.942-1.671 0-3.547.51-5.014 1.19l-.853-2.006c1.808-1.019 3.991-1.63 5.936-1.63 4.263 0 6.344 2.038 6.344 6.523V27.16H61.6l-.34-1.97c-1.774 1.426-4.06 2.242-5.868 2.242-3.172 0-5.082-1.903-5.082-5.097 0-3.635 2.455-5.537 7.06-5.537h3.582zm14.837 8.357c3.172 0 5.014-2.378 5.014-6.897 0-4.518-1.842-6.964-5.014-6.964s-5.014 2.446-5.014 6.964c0 4.52 1.842 6.897 5.014 6.897zm0 2.345c-4.98 0-7.982-3.296-7.982-9.242 0-5.979 3.036-9.308 7.982-9.308 4.98 0 7.982 3.329 7.982 9.308 0 5.946-2.968 9.242-7.982 9.242zm16.814-3.364a10.42 10.42 0 0 0 1.638.102c2.865 0 4.912-1.8 4.912-6.387 0-3.465-.853-5.47-4.094-5.47-1.023 0-1.91.238-2.456.408v11.347zm-4.57-22.32L92.601 1v8.867a7.826 7.826 0 0 1 4.094-1.155c4.843 0 7.094 3.296 7.094 9.037 0 6.217-3.41 9.92-9.073 9.92-2.626 0-5.424-.509-6.686-1.053v-24.8zm28.276 17.36h-2.456c-2.456 0-3.753.986-3.753 2.786 0 1.291.75 2.14 2.252 2.14 1.569 0 3.138-.713 3.957-1.427v-3.499zm0-2.922v-.611c0-1.97-.615-3.092-3.31-3.092-1.671 0-3.206.34-4.843 1.19l-1.262-3.126c1.74-1.19 4.298-1.903 6.651-1.903 4.605 0 7.027 2.242 7.027 6.897V27.16h-3.206l-.512-1.529c-1.842 1.427-3.82 2.005-5.423 2.005-3.514 0-5.458-2.073-5.458-5.64 0-3.771 2.592-5.742 7.47-5.742h2.866zm8.355-6.998h3.24l.683 1.8c1.603-1.427 3.82-2.344 5.73-2.344 4.025 0 6.038 2.48 6.038 6.965V27.16h-4.57V15.54c0-2.003-.751-2.853-3.173-2.853-.955 0-2.32.272-3.377.68V27.16h-4.57V9.256z"/>
</svg>
